<?xml version="1.0" encoding="utf-8"?>
<!-- Generator: Adobe Illustrator 19.0.0, SVG Export Plug-In . SVG Version: 6.00 Build 0)  -->
<svg version="1.1" id="Réteg_1" xmlns="http://www.w3.org/2000/svg" xmlns:xlink="http://www.w3.org/1999/xlink" x="0px" y="0px"
	 viewBox="0 0 960 560" style="enable-background:new 0 0 960 560;" xml:space="preserve">
<style type="text/css">
	.st0{fill:#FFFFFF;}
</style>
<g>
	<g>
		<path class="st0" d="M318.6,343.1v6.4c0,0.6-0.5,1.1-1.1,1.1h-28.6c-3.7,0-6.7,3-6.7,6.7v16.9c0.9-1.1,2.6-1.9,4.4-1.9h30v6.4
			c0,0.6-0.5,1.1-1.1,1.1h-33.3v28.2c0,0.6-0.5,1.1-1.1,1.1h-7.1v-51.3c0-8.3,6.7-15,15-15H318.6z"/>
		<path class="st0" d="M334.3,377.6v30.6c0,0.6-0.5,1.1-1.1,1.1H326v-61.1c0-2.8,2.3-5.1,5.1-5.1h27.7c8.3,0,15,5.2,15,14.2v8.6
			c0,7.8-5.6,12-12,13.7l14.1,29.8h-7.7c-0.6,0-1.3-0.5-1.6-1.1L353.3,380H342h-2.6c-2.5,0-4.3-0.7-4.9-2.4H334.3z M358.8,372.4
			c3.7,0,6.7-3,6.7-6.7v-8.3c0-3.7-3-6.7-6.7-6.7H336c-1,0-1.7,0.8-1.7,1.7v18.3c0,1,0.8,1.7,1.7,1.7H358.8z"/>
		<path class="st0" d="M391.3,357.4v16.8c0.9-1.1,2.5-1.8,4.3-1.8h29v6.4c0,0.6-0.5,1.1-1.1,1.1h-32.2v15.1c0,3.7,3,6.7,6.7,6.7
			h28.6c0.6,0,1.1,0.5,1.1,1.1v6.4H398c-8.3,0-15-6.7-15-15v-36.3c0-8.3,6.7-15,15-15h29.7v6.4c0,0.6-0.5,1.1-1.1,1.1H398
			C394.3,350.7,391.3,353.7,391.3,357.4z"/>
		<path class="st0" d="M444.1,357.4v16.8c0.9-1.1,2.5-1.8,4.3-1.8h29v6.4c0,0.6-0.5,1.1-1.1,1.1h-32.2v15.1c0,3.7,3,6.7,6.7,6.7
			h28.6c0.6,0,1.1,0.5,1.1,1.1v6.4h-29.7c-8.3,0-15-6.7-15-15v-36.3c0-8.3,6.7-15,15-15h29.7v6.4c0,0.6-0.5,1.1-1.1,1.1h-28.6
			C447.1,350.7,444.1,353.7,444.1,357.4z"/>
		<path class="st0" d="M488.7,394.1v-49.8c0-0.6,0.5-1.1,1.1-1.1h7.1v51.8c0,3.8,3.1,6.9,6.8,6.9h27.5c0.6,0,1.1,0.5,1.1,1.1v6.4
			h-28.7C495.5,409.4,488.7,402.5,488.7,394.1z"/>
		<path class="st0" d="M539.6,394.7v-51.6h7.1c0.6,0,1.1,0.5,1.1,1.1v51.2c0,3.7,3,6.7,6.7,6.7h19.9c3.7,0,6.7-3,6.7-6.7v-51.2
			c0-0.6,0.5-1.1,1.1-1.1h7.1v51.6c0,8.3-6.8,15-15,15h-19.9C546.3,409.7,539.6,403,539.6,394.7z"/>
		<path class="st0" d="M632.4,401.8c3.7,0,6.5-3,6.5-6.7v-8c0-0.9-0.7-1.9-1.6-2.1l-33.9-11.3c-2.6-0.9-4.9-3.9-4.9-6.7v-10.5
			c0-8.3,6.7-13.3,15-13.3H645v6.4c0,0.6-0.4,1.1-1.1,1.1h-30.3c-3.7,0-6.8,2.4-6.8,6.1v8.6c0,1,0.7,1.9,1.6,2.2l33.9,11.2
			c2.6,0.9,4.6,4,4.6,6.8v9.4c0,8.3-6.3,14.4-14.5,14.4h-33.8v-6.4c0-0.7,0.5-1.1,1.1-1.1H632.4z"/>
		<path class="st0" d="M658.2,408.2v-65.1h7.1c0.6,0,1.1,0.5,1.1,1.1v65.1h-7.1C658.7,409.4,658.2,408.9,658.2,408.2z"/>
		<path class="st0" d="M693.4,409.7c-8.3,0-15-6.7-15-15v-37c0-8.3,6.7-15,15-15h19.9c8.2,0,15,6.7,15,15v37c0,8.3-6.8,15-15,15
			H693.4z M686.7,357.1v38.4c0,3.7,3,6.7,6.7,6.7h19.9c3.7,0,6.7-3,6.7-6.7v-38.4c0-3.7-3-6.7-6.7-6.7h-19.9
			C689.7,350.4,686.7,353.4,686.7,357.1z"/>
		<path class="st0" d="M783.6,397.4c-0.9-6.9-0.9-12.4-1.3-18.7v-34.4c0-0.6,0.5-1.1,1.1-1.1h7.1v66.2h-7.7c-0.6,0-1.4-0.5-1.7-1.1
			l-30.2-56.2c-0.4-0.8-1.5-1.4-2.4-1.4c-0.8,0-1.5,0-1.5,0v57.5c0,0.6-0.5,1.1-1.1,1.1h-7.1v-65.1c0-0.6,0.5-1.1,1.1-1.1h10.1
			c2.8,0,6.2,2,7.5,4.5l18,34L783.6,397.4z"/>
	</g>
	<g>
		<path id="XMLID_2_" class="st0" d="M175.6,182.6l64.9,23.3l3,1.1c2.8,1.4,4.9,3.8,6,6.8l0.7,2.9l18.9,76.9
			c0.1,0.3,0.1,0.5,0.2,0.8c0.5,2.3,0.2,4.3-1.1,5.4c-1.1,0.9-2.9,1-4.8,0.2l-0.8-0.3c-0.1,0-0.1,0-0.2-0.1l-57.2-24
			c-1.1-0.4-2.2-0.8-3.2-1.3c-4.9-2.5-8.6-7-10.3-12.3c-0.1-0.3-0.2-0.7-0.3-1.1l-21.5-73.6c-0.1-0.4-0.2-0.8-0.2-1.2
			c0-2.2,1.7-3.9,3.9-3.9c0.3,0,0.5,0,0.8,0.1c0,0,0,0,0,0"/>
		<path id="XMLID_1_" class="st0" d="M316,163.8c0,1-0.6,1.8-1.5,2.4l-0.6,0.3l-56.4,29.9l-3.6,1.9c-2.6,1.1-5.4,1.7-8.4,1.7
			c-2.3,0-4.4-0.3-6.5-1c-0.4-0.1-0.7-0.2-1.1-0.4l-56.9-19.2c0,0,0,0,0,0l-1.8-0.6c-1-0.6-1.6-1.5-1.6-2.5c0-1.1,0.7-2,1.9-2.6
			c0,0,0,0,0,0l1.1-0.4c0,0,0,0,0,0l51.7-18.6l11.3-4.1c3-0.6,6.3-0.9,9.7-0.9c2.3,0,4.6,0.2,6.8,0.5c2.1,0.3,4.2,0.7,6.1,1.2
			l46,9.2c0,0,0,0,0,0l1.3,0.3C315,161.4,316,162.5,316,163.8z"/>
	</g>
</g>
</svg>
